<?xml version="1.0" encoding="UTF-8"?>
<svg xmlns="http://www.w3.org/2000/svg" xmlns:xlink="http://www.w3.org/1999/xlink" viewBox="0 0 64 64" width="64px" height="64px">
<g id="surface19394486">
<path style=" stroke:none;fill-rule:nonzero;fill:rgb(40.000001%,40.000001%,40.000001%);fill-opacity:1;" d="M 21.011719 4 C 20.855469 4 20.710938 4.0625 20.601562 4.171875 C 20.492188 4.28125 20.429688 4.425781 20.429688 4.582031 L 20.429688 8 L 43.285156 8 L 43.285156 4.582031 C 43.285156 4.261719 43.027344 4 42.703125 4 Z M 8.472656 10 C 7.660156 10 7 10.660156 7 11.46875 L 7 14.527344 C 7 15.339844 7.660156 16 8.472656 16 L 55.527344 16 C 56.339844 16 57 15.339844 57 14.527344 L 57 11.46875 C 57 10.660156 56.339844 10 55.527344 10 Z M 11.183594 18 L 13.78125 54.808594 C 13.976562 57.710938 16.371094 59.972656 19.28125 60 L 44.433594 60 C 47.339844 59.972656 49.738281 57.710938 49.933594 54.808594 L 52.53125 18 Z M 18.050781 20 L 22.949219 20 C 24.082031 20.003906 25 20.917969 25 22.050781 L 25 55.953125 C 24.996094 57.082031 24.082031 58 22.949219 58 L 20.160156 58 C 17.863281 57.996094 16.003906 56.132812 16 53.835938 L 16 22.050781 C 16 20.917969 16.917969 20 18.050781 20 Z M 30.050781 20 L 33.914062 20 C 35.046875 20 35.964844 20.917969 35.964844 22.050781 L 35.964844 55.808594 C 35.964844 56.9375 35.046875 57.855469 33.914062 57.859375 L 30.050781 57.859375 C 28.917969 57.855469 28 56.9375 28 55.808594 L 28 22.050781 C 28 20.917969 28.917969 20 30.050781 20 Z M 41.050781 20 L 45.953125 20 C 47.082031 20.003906 48 20.917969 48 22.050781 L 48 53.835938 C 47.996094 56.132812 46.136719 57.996094 43.839844 58 L 41.050781 58 C 39.917969 58 39 57.082031 39 55.949219 L 39 22.050781 C 39 20.917969 39.917969 20 41.050781 20 Z M 18.050781 22 L 18 53.835938 C 18 55.03125 18.96875 55.996094 20.160156 56 L 22.949219 56 L 23 22.050781 Z M 30.050781 22 L 30 55.808594 L 33.914062 55.859375 C 33.941406 55.855469 33.964844 55.835938 33.964844 55.808594 L 33.964844 22.050781 Z M 41.050781 22 L 41 55.949219 L 43.839844 56 C 45.03125 55.996094 46 55.03125 46 53.835938 L 46 22.050781 Z M 41.050781 22 "/>
</g>
</svg>
