<?xml version="1.0" encoding="UTF-8"?>
<svg xmlns="http://www.w3.org/2000/svg" xmlns:xlink="http://www.w3.org/1999/xlink" viewBox="0 0 50 50" width="50px" height="50px">
<g id="surface3537129">
<path style=" stroke:none;fill-rule:nonzero;fill:rgb(86.666667%,85.882354%,94.509804%);fill-opacity:1;" d="M 25 5 C 19.035156 5 13.667969 7.621094 10 11.777344 L 10 8 C 10.007812 7.460938 9.796875 6.941406 9.414062 6.558594 C 9.03125 6.175781 8.511719 5.964844 7.96875 5.972656 C 6.867188 5.988281 5.984375 6.894531 6 8 L 6 18 L 9.046875 18 C 9.277344 18.039062 9.507812 18.039062 9.738281 18 L 16 18 C 16.722656 18.011719 17.390625 17.632812 17.753906 17.007812 C 18.121094 16.386719 18.121094 15.613281 17.753906 14.992188 C 17.390625 14.367188 16.722656 13.988281 16 14 L 13.390625 14 C 16.300781 10.925781 20.414062 9 25 9 C 33.558594 9 40.488281 15.675781 40.953125 24.109375 C 40.980469 24.828125 41.398438 25.476562 42.039062 25.804688 C 42.679688 26.132812 43.449219 26.089844 44.050781 25.695312 C 44.652344 25.296875 44.992188 24.609375 44.945312 23.890625 C 44.367188 13.378906 35.648438 5 25 5 Z M 7.109375 23.972656 C 6.546875 23.957031 6 24.179688 5.609375 24.585938 C 5.21875 24.992188 5.015625 25.546875 5.054688 26.109375 C 5.632812 36.621094 14.351562 45 25 45 C 30.964844 45 36.332031 42.378906 40 38.222656 L 40 42 C 39.988281 42.722656 40.367188 43.390625 40.992188 43.753906 C 41.613281 44.121094 42.386719 44.121094 43.007812 43.753906 C 43.632812 43.390625 44.011719 42.722656 44 42 L 44 32 L 40.910156 32 C 40.707031 31.96875 40.503906 31.96875 40.296875 32 L 34 32 C 33.277344 31.988281 32.609375 32.367188 32.246094 32.992188 C 31.878906 33.613281 31.878906 34.386719 32.246094 35.007812 C 32.609375 35.632812 33.277344 36.011719 34 36 L 36.609375 36 C 33.695312 39.074219 29.585938 41 25 41 C 16.441406 41 9.511719 34.324219 9.046875 25.890625 C 9.007812 24.839844 8.160156 24.003906 7.109375 23.972656 Z M 7.109375 23.972656 "/>
</g>
</svg>
