<?xml version="1.0" encoding="UTF-8"?>
<svg xmlns="http://www.w3.org/2000/svg" xmlns:xlink="http://www.w3.org/1999/xlink" viewBox="0 0 48 48" width="48px" height="48px">
<g id="surface3535411">
<path style=" stroke:none;fill-rule:nonzero;fill:rgb(86.666667%,85.882354%,94.509804%);fill-opacity:1;" d="M 5.5 2.5 C 5.441406 2.5 5.394531 2.523438 5.339844 2.53125 C 5.257812 2.539062 5.1875 2.558594 5.109375 2.578125 C 4.976562 2.617188 4.855469 2.667969 4.738281 2.738281 C 4.695312 2.765625 4.640625 2.769531 4.597656 2.800781 C 4.570312 2.820312 4.558594 2.855469 4.53125 2.878906 C 4.421875 2.972656 4.339844 3.082031 4.261719 3.203125 C 4.222656 3.261719 4.175781 3.3125 4.144531 3.375 C 4.054688 3.566406 4 3.773438 4 4 L 4 40 C 4 40.6875 4.46875 41.289062 5.136719 41.457031 L 18.652344 44.835938 C 19.695312 45.097656 20.800781 44.859375 21.652344 44.199219 C 22.484375 43.546875 22.972656 42.554688 22.992188 41.5 L 31.5 41.5 C 32.429688 41.5 33.316406 41.128906 33.972656 40.472656 C 34.628906 39.816406 35 38.929688 35 38 L 35 32 C 35 31.171875 34.328125 30.5 33.5 30.5 C 32.671875 30.5 32 31.171875 32 32 L 32 38 C 32 38.132812 31.949219 38.261719 31.855469 38.355469 C 31.761719 38.449219 31.632812 38.5 31.5 38.5 L 23 38.5 L 23 10.078125 C 23 8.515625 21.964844 7.144531 20.460938 6.714844 C 19.308594 6.386719 18.066406 6.03125 16.207031 5.5 L 31.5 5.5 C 31.777344 5.5 32 5.722656 32 6 L 32 12 C 32 12.828125 32.671875 13.5 33.5 13.5 C 34.328125 13.5 35 12.828125 35 12 L 35 6 C 35 4.066406 33.433594 2.5 31.5 2.5 Z M 32.5 16.5 C 32.117188 16.5 31.734375 16.648438 31.441406 16.941406 L 27.441406 20.941406 C 26.855469 21.527344 26.855469 22.472656 27.441406 23.058594 L 31.441406 27.058594 C 32.027344 27.644531 32.972656 27.644531 33.558594 27.058594 C 34.144531 26.472656 34.144531 25.527344 33.558594 24.941406 L 32.117188 23.5 L 42.5 23.5 C 43.328125 23.5 44 22.828125 44 22 C 44 21.171875 43.328125 20.5 42.5 20.5 L 32.117188 20.5 L 33.558594 19.058594 C 34.144531 18.472656 34.144531 17.527344 33.558594 16.941406 C 33.265625 16.648438 32.882812 16.5 32.5 16.5 Z M 32.5 16.5 "/>
</g>
</svg>
